<?xml version="1.0" standalone="no"?>
<!DOCTYPE svg PUBLIC "-//W3C//DTD SVG 20010904//EN"
 "http://www.w3.org/TR/2001/REC-SVG-20010904/DTD/svg10.dtd">
<svg version="1.0" xmlns="http://www.w3.org/2000/svg"
 width="1216.000000pt" height="1216.000000pt" viewBox="0 0 1216.000000 1216.000000"
 preserveAspectRatio="xMidYMid meet">
<metadata>
Created by potrace 1.14, written by Peter Selinger 2001-2017
</metadata>
<g transform="translate(0.000000,1216.000000) scale(0.100000,-0.100000)"
fill="#000000" stroke="none">
<path d="M1930 8504 l0 -3646 913 912 c501 502 1323 1323 1825 1825 l912 913
-1820 1821 c-1001 1002 -1822 1821 -1825 1821 -3 0 -5 -1641 -5 -3646z"/>
<path d="M8401 10331 c-998 -999 -1813 -1821 -1811 -1827 2 -5 822 -827 1822
-1828 l1818 -1819 0 3647 c0 2005 -3 3646 -7 3645 -5 0 -825 -818 -1822 -1818z"/>
<path d="M4256 6184 c-999 -999 -1816 -1819 -1816 -1822 0 -9 63 -7 77 1 6 4
13 4 16 0 5 -4 1534 -6 2647 -3 8 0 49 -1 92 -2 42 -2 74 0 71 4 -2 5 6 4 19
0 13 -4 41 -7 63 -6 79 4 91 5 167 2 42 -2 74 0 71 4 -2 5 6 4 19 0 13 -4 41
-7 63 -6 79 4 91 5 167 2 42 -2 74 0 71 4 -2 5 6 4 19 0 13 -4 41 -7 63 -6 79
4 91 5 167 2 42 -2 74 0 71 4 -2 5 6 4 19 0 13 -4 41 -7 63 -6 79 4 91 5 167
2 42 -2 74 0 71 4 -2 5 6 4 19 0 13 -4 41 -7 63 -6 79 4 91 5 167 2 42 -2 74
0 71 4 -2 5 6 4 19 0 13 -4 41 -7 63 -6 79 4 91 5 167 2 42 -2 74 0 71 4 -2 5
6 4 19 0 13 -4 41 -7 63 -6 79 4 91 5 167 2 43 -2 74 1 71 6 -4 5 0 6 7 1 9
-6 2039 -11 2127 -6 12 1 -3623 3641 -3637 3641 -4 0 -825 -817 -1824 -1816z"/>
<path d="M2440 3652 c-5 -2 811 -825 1815 -1829 l1825 -1825 1826 1826 c1004
1004 1822 1826 1817 1827 -24 3 -7275 3 -7283 1z"/>
</g>
</svg>
